<svg version="1.1" id="Layer_1" xmlns="http://www.w3.org/2000/svg" xmlns:xlink="http://www.w3.org/1999/xlink" x="0px" y="0px"
	 width="100%" viewBox="0 0 500 500" enable-background="new 0 0 500 500" xml:space="preserve">
<path fill="" opacity="1.000000" stroke="none" 
	d="
M328.000000,501.000000 
	C218.666687,501.000000 109.833382,501.000000 1.000058,501.000000 
	C1.000039,334.333405 1.000039,167.666794 1.000019,1.000148 
	C167.666565,1.000099 334.333130,1.000099 500.999756,1.000049 
	C500.999847,167.666519 500.999847,334.333038 500.999939,500.999786 
	C443.500000,501.000000 386.000000,501.000000 328.000000,501.000000 
M357.935089,147.850739 
	C357.935089,147.850739 357.879852,147.874161 358.764954,147.958099 
	C360.536133,147.958176 362.307281,147.958267 364.594299,148.160385 
	C365.094910,148.695679 365.595520,149.230972 366.282715,150.337906 
	C366.630524,150.508148 366.978302,150.678391 367.919678,151.124680 
	C391.694550,170.944885 415.510193,190.716843 439.153534,210.692673 
	C440.747742,212.039612 441.823120,214.922867 441.828186,217.094650 
	C441.984680,284.075470 441.977142,351.056671 441.994934,418.037811 
	C441.995453,419.954346 441.995026,421.870911 441.995026,424.235535 
	C391.344543,424.235535 341.583801,424.235535 291.428406,424.235535 
	C291.333282,422.808441 291.156586,421.357056 291.152374,419.905121 
	C291.119232,408.408447 291.236572,396.909637 291.034119,385.416290 
	C290.976166,382.125458 291.975342,380.508514 295.066620,379.095428 
	C306.293976,373.963226 311.451660,360.581787 306.768707,349.717499 
	C302.868713,340.669678 293.024841,334.427246 284.184174,335.395660 
	C273.102875,336.609528 264.791077,343.988312 263.016052,354.187561 
	C261.155518,364.878571 266.053375,374.680054 276.054962,379.123657 
	C279.268951,380.551605 279.990662,382.336243 279.924957,385.522217 
	C279.615967,400.503479 279.698700,415.494720 279.234253,430.469727 
	C279.087158,435.212250 280.661224,436.240051 285.143311,436.226837 
	C340.126862,436.064728 395.110992,436.099884 450.094971,436.061279 
	C451.535217,436.060272 452.975311,435.802032 454.633667,435.642792 
	C454.737366,433.839508 454.896393,432.375275 454.895050,430.911163 
	C454.827667,357.765656 454.777985,284.619995 454.528595,211.475067 
	C454.520355,209.057663 453.106628,205.893417 451.275726,204.346313 
	C422.672913,180.176620 393.858246,156.257812 365.214783,132.135818 
	C362.669739,129.992508 361.039703,129.856277 358.399414,131.762283 
	C349.766174,137.994461 340.930603,143.945526 332.232300,150.088837 
	C330.122986,151.578568 328.624481,152.128265 326.223694,150.100906 
	C301.686462,129.380493 277.017548,108.816002 252.383682,88.210022 
	C243.480896,80.762939 234.573349,73.321533 225.671738,65.880669 
	C224.095108,66.877098 222.802185,67.630112 221.575577,68.478935 
	C199.402603,83.822731 177.218979,99.151306 155.077652,114.540680 
	C141.019394,124.311897 127.026543,134.177200 112.386200,144.100616 
	C111.601547,144.737961 110.816895,145.375320 110.000175,145.996597 
	C110.000175,145.996597 110.010201,146.030975 109.319359,146.130417 
	C105.200882,149.077530 101.082397,152.024628 97.001427,154.998642 
	C97.001427,154.998642 96.973503,154.961273 96.306305,155.113358 
	C93.820885,157.020676 91.335464,158.928009 88.976654,160.958359 
	C88.976654,160.958359 88.884033,160.808075 88.182922,160.909409 
	C80.715012,166.158981 73.247108,171.408539 65.115807,176.885498 
	C60.559242,179.931259 56.096210,183.131485 51.412701,185.967590 
	C48.373283,187.808105 47.080421,190.062439 47.128788,193.668457 
	C47.293804,205.971603 47.153202,218.278580 47.200321,230.583832 
	C47.209675,233.027695 47.065895,234.843933 44.253502,236.089218 
	C33.335419,240.923553 28.241926,249.448669 28.916901,261.462646 
	C29.494020,271.734894 37.117851,280.572876 48.197575,283.501526 
	C57.818066,286.044495 68.816704,281.606812 74.001373,273.005096 
	C74.001373,273.005096 74.056587,273.085510 74.660057,272.724609 
	C82.935219,257.974030 78.069115,243.131042 62.794003,235.709274 
	C61.395344,235.029694 60.159058,232.493423 60.119278,230.789627 
	C59.882191,220.634201 60.178486,210.466370 59.944725,200.310791 
	C59.861820,196.708893 61.120117,194.701126 64.064026,192.674973 
	C116.561333,156.543106 168.980057,120.296944 221.360596,83.995895 
	C223.857910,82.265205 225.556366,82.319374 227.850235,84.254593 
	C255.700974,107.750908 283.617920,131.168716 311.510254,154.615784 
	C313.481934,156.273254 315.395111,158.000412 317.765686,160.070908 
	C302.196198,170.912262 287.243988,181.323807 272.440399,191.631851 
	C270.490997,190.534607 268.930573,189.575104 267.301086,188.752380 
	C257.136505,183.620087 244.291580,186.060715 237.261993,194.429260 
	C229.374969,203.818573 228.912582,216.874222 236.135056,226.249237 
	C243.004440,235.165939 255.483719,238.430283 265.788483,234.005966 
	C276.572571,229.375885 283.035583,217.729919 280.540741,206.341949 
	C279.767639,202.813004 280.828400,201.262283 283.454895,199.453171 
	C297.293365,189.921265 311.071228,180.299179 324.754517,170.546158 
	C327.356506,168.691528 329.148956,169.163223 331.309723,171.005936 
	C337.892883,176.620026 344.713104,181.968719 351.086243,187.807968 
	C352.765137,189.346207 353.912842,192.253952 354.009888,194.586655 
	C354.355774,202.901245 353.929474,211.246918 354.234924,219.564667 
	C354.385498,223.664490 353.407043,226.322922 348.289520,227.009918 
	C345.148193,226.639099 343.139313,227.685455 342.899719,231.578033 
	C342.720734,231.832733 342.479675,231.995560 341.651550,232.223862 
	C341.459503,232.522171 341.267426,232.820496 341.090088,233.023132 
	C341.090088,233.023132 341.136719,233.107971 340.395355,233.103180 
	C338.526062,236.003998 336.395752,238.774979 334.868347,241.845840 
	C333.599426,244.397095 331.777649,247.649933 332.421173,249.978333 
	C333.889557,255.291275 336.654419,260.259460 339.085724,265.274017 
	C339.362488,265.844849 340.871124,265.818420 342.362457,266.331482 
	C342.889343,266.940491 343.416260,267.549469 343.974304,268.927734 
	C344.263550,269.832062 344.296448,271.277466 344.882538,271.555115 
	C349.578522,273.779510 354.314148,275.954559 359.170502,277.793945 
	C362.378815,279.009125 367.824188,276.175598 369.423370,272.957611 
	C369.423370,272.957611 369.853912,272.927032 370.642334,272.983521 
	C371.720520,272.268921 372.798706,271.554321 373.993195,270.861603 
	C373.993195,270.861603 373.875885,270.870544 374.630859,270.955841 
	C378.382507,269.433655 382.207855,267.977417 381.977448,262.387787 
	C381.977448,262.387787 382.162689,261.982941 382.564514,261.712128 
	C382.805481,261.467804 382.925842,261.174042 383.157013,260.130524 
	C388.924347,245.642578 383.860107,232.787750 370.029022,226.068771 
	C368.586700,225.368134 367.116058,223.026794 367.076782,221.412170 
	C366.818359,210.789368 366.812775,200.154343 367.028412,189.529449 
	C367.102020,185.903336 366.237518,183.296097 363.266418,180.987198 
	C357.646667,176.620041 352.330109,171.862747 346.720306,166.678894 
	C346.369629,166.500854 346.018921,166.322815 345.152740,165.999252 
	C344.778198,165.632599 344.403625,165.265961 343.801605,164.484299 
	C343.595612,164.226486 343.331146,164.063538 343.000000,164.000000 
	C343.000000,164.000000 343.005890,163.992416 343.017334,163.254822 
	C344.112640,161.781906 345.129608,160.241898 346.320587,158.850891 
	C348.426117,156.391678 350.637634,154.023163 353.014893,151.258530 
	C353.204437,151.041931 353.440033,150.903870 354.553772,150.938004 
	C356.862854,151.202026 358.331116,150.562836 357.935089,147.850739 
M204.084808,353.888275 
	C204.072052,360.854156 204.022308,367.820251 204.054047,374.785919 
	C204.125778,390.531921 204.237732,406.277802 203.724457,422.688385 
	C202.755356,422.877594 201.787079,423.227997 200.817062,423.232819 
	C156.497528,423.453583 112.177704,423.620880 67.858421,423.880707 
	C64.176773,423.902283 63.021103,422.534973 63.040730,418.863586 
	C63.171696,394.366730 63.219551,369.867737 62.993473,345.372223 
	C62.950962,340.766418 64.635857,338.116150 68.302963,335.605194 
	C83.550697,325.164642 98.587105,314.415924 113.734543,303.828186 
	C125.162689,295.840179 136.641785,287.925018 147.972641,280.064545 
	C159.273819,287.906067 171.286560,287.874939 180.147781,280.225952 
	C189.607880,272.060028 191.944031,258.730286 185.785522,248.057877 
	C179.977509,237.992905 166.419937,233.315826 155.280365,237.534210 
	C144.159271,241.745605 137.905167,253.400101 139.657196,265.763947 
	C139.934631,267.721893 138.806381,270.858093 137.265579,271.949280 
	C110.094078,291.191864 82.801132,310.264618 55.398083,329.176483 
	C52.186142,331.393219 50.741009,333.527771 50.742329,337.552368 
	C50.752522,368.538208 50.500206,399.524109 50.331356,430.510010 
	C50.321842,432.256226 50.330132,434.002533 50.330132,435.763245 
	C106.205688,435.763245 161.290695,435.763245 216.895340,435.763245 
	C216.895340,433.610901 216.895340,431.821869 216.895340,430.032806 
	C216.895203,405.701874 216.891663,381.370941 216.900558,357.040009 
	C216.901382,354.787048 216.486389,352.738403 219.600372,351.499146 
	C229.530350,347.547302 234.771454,339.829865 235.280197,329.240265 
	C235.741074,319.646576 231.636353,311.966003 223.438263,307.075714 
	C214.740723,301.887482 205.639542,301.922760 197.017044,307.490295 
	C188.772919,312.813538 185.060608,320.659729 185.746887,330.416382 
	C186.576401,342.209686 193.886444,348.849945 204.084808,353.888275 
z"/>
<path fill="#61ADD9" opacity="1.000000" stroke="none" 
	d="
M343.943176,268.158447 
	C343.416260,267.549469 342.889343,266.940491 341.987579,265.873901 
	C340.715210,264.035217 339.712219,262.710632 338.937317,261.263855 
	C333.666382,251.422577 335.431152,242.105453 341.136719,233.107971 
	C341.136719,233.107971 341.090088,233.023132 341.331665,232.974426 
	C341.774353,232.639313 341.975433,232.352905 342.176544,232.066498 
	C342.479675,231.995560 342.720734,231.832733 343.313019,231.278809 
	C345.520233,229.672318 347.314178,228.365036 349.108124,227.057770 
	C353.407043,226.322922 354.385498,223.664490 354.234924,219.564667 
	C353.929474,211.246918 354.355774,202.901245 354.009888,194.586655 
	C353.912842,192.253952 352.765137,189.346207 351.086243,187.807968 
	C344.713104,181.968719 337.892883,176.620026 331.309723,171.005936 
	C329.148956,169.163223 327.356506,168.691528 324.754517,170.546158 
	C311.071228,180.299179 297.293365,189.921265 283.454895,199.453171 
	C280.828400,201.262283 279.767639,202.813004 280.540741,206.341949 
	C283.035583,217.729919 276.572571,229.375885 265.788483,234.005966 
	C255.483719,238.430283 243.004440,235.165939 236.135056,226.249237 
	C228.912582,216.874222 229.374969,203.818573 237.261993,194.429260 
	C244.291580,186.060715 257.136505,183.620087 267.301086,188.752380 
	C268.930573,189.575104 270.490997,190.534607 272.440399,191.631851 
	C287.243988,181.323807 302.196198,170.912262 317.765686,160.070908 
	C315.395111,158.000412 313.481934,156.273254 311.510254,154.615784 
	C283.617920,131.168716 255.700974,107.750908 227.850235,84.254593 
	C225.556366,82.319374 223.857910,82.265205 221.360596,83.995895 
	C168.980057,120.296944 116.561333,156.543106 64.064026,192.674973 
	C61.120117,194.701126 59.861820,196.708893 59.944725,200.310791 
	C60.178486,210.466370 59.882191,220.634201 60.119278,230.789627 
	C60.159058,232.493423 61.395344,235.029694 62.794003,235.709274 
	C78.069115,243.131042 82.935219,257.974030 74.338089,272.455627 
	C74.094467,270.037598 73.596191,267.658386 74.347008,265.777863 
	C78.466034,255.461105 73.299110,248.037140 66.945183,240.984833 
	C66.146057,240.097885 63.954697,239.223633 63.365311,239.654007 
	C62.222569,240.488403 61.188076,242.250641 61.177509,243.636566 
	C61.166962,245.020294 62.273911,247.459610 63.219357,247.631699 
	C68.861656,248.658554 70.750740,253.349228 73.439034,257.288574 
	C73.634064,257.574341 73.401398,258.151978 73.350418,258.818176 
	C71.949219,258.702667 70.713936,258.600830 68.509636,258.419098 
	C69.534370,263.325806 70.378876,267.756317 71.481987,272.121490 
	C71.608139,272.620667 73.181381,272.754120 74.083656,273.057159 
	C68.816704,281.606812 57.818066,286.044495 48.197575,283.501526 
	C37.117851,280.572876 29.494020,271.734894 28.916901,261.462646 
	C28.241926,249.448669 33.335419,240.923553 44.253502,236.089218 
	C47.065895,234.843933 47.209675,233.027695 47.200321,230.583832 
	C47.153202,218.278580 47.293804,205.971603 47.128788,193.668457 
	C47.080421,190.062439 48.373283,187.808105 51.412701,185.967590 
	C56.096210,183.131485 60.559242,179.931259 65.504196,176.877747 
	C65.892593,176.870010 66.018837,177.071548 66.018280,177.441528 
	C68.462585,184.470200 68.476379,184.367126 61.588028,183.445145 
	C60.415276,183.288162 59.067131,184.441544 57.800014,184.989548 
	C66.098854,188.492294 72.207664,185.971527 74.933952,179.140152 
	C76.433441,179.252960 77.987587,179.369888 78.891846,179.437912 
	C79.455475,177.566666 79.717789,176.037567 80.363098,174.692154 
	C81.656090,171.996384 80.674179,170.982620 78.023697,170.632156 
	C81.680855,167.132278 85.282448,163.970184 88.884033,160.808075 
	C88.884033,160.808075 88.976654,160.958359 89.291428,160.945953 
	C92.061966,158.942795 94.517738,156.952042 96.973503,154.961273 
	C96.973503,154.961273 97.001427,154.998642 97.368927,154.995407 
	C101.827690,152.005112 105.918945,149.018036 110.010201,146.030975 
	C110.010201,146.030975 110.000175,145.996597 110.367050,145.999954 
	C111.490730,145.335648 112.247543,144.667984 113.004356,144.000320 
	C127.026543,134.177200 141.019394,124.311897 155.077652,114.540680 
	C177.218979,99.151306 199.402603,83.822731 221.575577,68.478935 
	C222.802185,67.630112 224.095108,66.877098 225.671738,65.880669 
	C234.573349,73.321533 243.480896,80.762939 252.383682,88.210022 
	C277.017548,108.816002 301.686462,129.380493 326.223694,150.100906 
	C328.624481,152.128265 330.122986,151.578568 332.232300,150.088837 
	C340.930603,143.945526 349.766174,137.994461 358.399414,131.762283 
	C361.039703,129.856277 362.669739,129.992508 365.214783,132.135818 
	C393.858246,156.257812 422.672913,180.176620 451.275726,204.346313 
	C453.106628,205.893417 454.520355,209.057663 454.528595,211.475067 
	C454.777985,284.619995 454.827667,357.765656 454.895050,430.911163 
	C454.896393,432.375275 454.737366,433.839508 454.633667,435.642792 
	C452.975311,435.802032 451.535217,436.060272 450.094971,436.061279 
	C395.110992,436.099884 340.126862,436.064728 285.143311,436.226837 
	C280.661224,436.240051 279.087158,435.212250 279.234253,430.469727 
	C279.698700,415.494720 279.615967,400.503479 279.924957,385.522217 
	C279.990662,382.336243 279.268951,380.551605 276.054962,379.123657 
	C266.053375,374.680054 261.155518,364.878571 263.016052,354.187561 
	C264.791077,343.988312 273.102875,336.609528 284.184174,335.395660 
	C293.024841,334.427246 302.868713,340.669678 306.768707,349.717499 
	C311.451660,360.581787 306.293976,373.963226 295.066620,379.095428 
	C291.975342,380.508514 290.976166,382.125458 291.034119,385.416290 
	C291.236572,396.909637 291.119232,408.408447 291.152374,419.905121 
	C291.156586,421.357056 291.333282,422.808441 291.428406,424.235535 
	C341.583801,424.235535 391.344543,424.235535 441.995026,424.235535 
	C441.995026,421.870911 441.995453,419.954346 441.994934,418.037811 
	C441.977142,351.056671 441.984680,284.075470 441.828186,217.094650 
	C441.823120,214.922867 440.747742,212.039612 439.153534,210.692673 
	C415.510193,190.716843 391.694550,170.944885 367.471802,150.749847 
	C366.714691,150.172089 366.405396,149.969177 366.096130,149.766266 
	C365.595520,149.230972 365.094910,148.695679 364.162781,147.746643 
	C361.545654,144.971207 359.628265,145.509109 357.879852,147.874161 
	C357.879852,147.874161 357.935089,147.850739 357.585022,147.913116 
	C356.063843,148.931793 354.892731,149.888077 353.721619,150.844360 
	C353.440033,150.903870 353.204437,151.041931 352.570129,151.536407 
	C347.792297,154.646957 343.459198,157.479630 338.532532,160.700317 
	C340.470642,162.126648 341.738281,163.059525 343.005890,163.992416 
	C343.005890,163.992416 343.000000,164.000000 343.094543,164.226074 
	C343.393616,164.742950 343.673645,164.891998 344.029083,164.899307 
	C344.403625,165.265961 344.778198,165.632599 345.561462,166.312103 
	C346.276001,166.839172 346.581787,167.053375 346.887573,167.267563 
	C352.330109,171.862747 357.646667,176.620041 363.266418,180.987198 
	C366.237518,183.296097 367.102020,185.903336 367.028412,189.529449 
	C366.812775,200.154343 366.818359,210.789368 367.076782,221.412170 
	C367.116058,223.026794 368.586700,225.368134 370.029022,226.068771 
	C383.860107,232.787750 388.924347,245.642578 382.827209,260.607178 
	C382.229065,261.325226 382.117493,261.624908 382.162689,261.982941 
	C382.162689,261.982941 381.977448,262.387787 381.660919,262.790161 
	C378.854889,265.751892 376.365387,268.311218 373.875885,270.870544 
	C373.875885,270.870544 373.993195,270.861603 373.607544,270.890839 
	C372.099243,271.589050 370.976562,272.258026 369.853912,272.927032 
	C369.853912,272.927032 369.423370,272.957611 368.802979,273.024414 
	C359.258728,275.594696 351.265228,273.526367 343.943176,268.158447 
M56.923168,208.276428 
	C55.713013,205.608200 52.243782,203.488876 54.750771,199.904495 
	C56.675587,197.152481 58.723282,194.486404 60.771175,191.707672 
	C58.958580,190.648193 57.512360,189.366364 55.851521,188.958557 
	C54.284187,188.573700 52.491058,189.108414 50.797253,189.238617 
	C51.013771,190.544327 51.350880,191.843842 51.418213,193.157196 
	C51.516361,195.071625 51.943806,197.191406 51.313026,198.880966 
	C49.065971,204.899765 49.294971,205.900986 54.997288,209.933304 
	C53.772625,215.313110 58.142796,221.969543 51.299496,226.133881 
	C50.951103,226.345886 51.023968,227.816360 51.349838,228.480515 
	C53.929676,233.738312 51.567070,237.454041 47.827766,240.937027 
	C47.197575,241.524048 47.304771,242.902710 47.071259,243.915619 
	C49.587883,243.805496 52.264980,244.169418 54.556290,243.393738 
	C55.779716,242.979584 57.033031,240.612488 57.063961,239.102036 
	C57.154617,234.674957 56.424084,230.235886 56.415409,225.800720 
	C56.404453,220.200684 56.788452,214.599869 56.923168,208.276428 
M351.454895,240.977417 
	C347.386353,246.874634 347.060730,251.845215 350.429108,256.636810 
	C353.282562,260.695953 359.069702,262.805603 363.673462,261.464905 
	C368.784180,259.976562 372.416534,255.833420 372.920532,250.797379 
	C373.456909,245.438477 371.267273,241.157562 366.745941,238.602036 
	C361.615906,235.702469 356.489136,236.416107 351.454895,240.977417 
M65.937996,256.952698 
	C64.456558,248.384888 56.197670,245.176880 49.166969,247.503616 
	C42.874020,249.586197 39.632504,257.193420 42.007603,263.485016 
	C44.246861,269.416779 49.570698,272.198364 56.549004,271.082550 
	C62.438816,270.140778 65.889252,265.272980 65.937996,256.952698 
M248.030624,201.447098 
	C242.258438,207.735611 242.189758,215.322418 247.859314,220.367386 
	C253.040405,224.977676 261.066406,224.280731 265.630310,218.824249 
	C269.188385,214.570297 269.203033,207.416107 265.662415,203.127106 
	C261.457520,198.033401 255.341293,197.263992 248.030624,201.447098 
M295.598145,363.737030 
	C298.281647,355.885895 295.525696,349.410004 288.632568,347.369415 
	C282.563354,345.572723 275.987091,349.389771 274.376343,355.644135 
	C273.145752,360.422363 275.571960,365.971008 279.936523,368.360077 
	C285.291229,371.291077 290.083466,370.032104 295.598145,363.737030 
M44.195946,279.563507 
	C49.545292,280.890747 54.859951,283.648621 61.617649,279.260773 
	C41.768940,280.531311 39.486149,267.388214 38.507629,253.225479 
	C32.234810,257.403687 35.283741,271.831451 44.195946,279.563507 
M45.331154,247.023056 
	C43.122108,245.438660 40.640751,242.348068 38.779015,242.684662 
	C36.836445,243.035873 35.490822,246.688889 34.090099,248.615250 
	C36.678753,248.615250 38.564339,248.747025 40.421474,248.573807 
	C41.921890,248.433853 43.388020,247.926285 45.331154,247.023056 
M66.972969,269.949036 
	C65.211845,268.828186 65.211845,268.828186 62.331894,272.636169 
	C63.942669,273.482147 65.491020,274.295319 67.814522,275.515625 
	C67.416817,273.123627 67.210892,271.885101 66.972969,269.949036 
M42.490723,240.860703 
	C42.794979,240.432632 43.099236,240.004578 43.403496,239.576523 
	C42.953384,239.462662 42.503273,239.348801 42.053165,239.234940 
	C41.999268,239.736130 41.945374,240.237335 42.490723,240.860703 
z"/>
<path fill="#60ACD9" opacity="1.000000" stroke="none" 
	d="
M204.205231,352.950378 
	C193.886444,348.849945 186.576401,342.209686 185.746887,330.416382 
	C185.060608,320.659729 188.772919,312.813538 197.017044,307.490295 
	C205.639542,301.922760 214.740723,301.887482 223.438263,307.075714 
	C231.636353,311.966003 235.741074,319.646576 235.280197,329.240265 
	C234.771454,339.829865 229.530350,347.547302 219.600372,351.499146 
	C216.486389,352.738403 216.901382,354.787048 216.900558,357.040009 
	C216.891663,381.370941 216.895203,405.701874 216.895340,430.032806 
	C216.895340,431.821869 216.895340,433.610901 216.895340,435.763245 
	C161.290695,435.763245 106.205688,435.763245 50.330132,435.763245 
	C50.330132,434.002533 50.321842,432.256226 50.331356,430.510010 
	C50.500206,399.524109 50.752522,368.538208 50.742329,337.552368 
	C50.741009,333.527771 52.186142,331.393219 55.398083,329.176483 
	C82.801132,310.264618 110.094078,291.191864 137.265579,271.949280 
	C138.806381,270.858093 139.934631,267.721893 139.657196,265.763947 
	C137.905167,253.400101 144.159271,241.745605 155.280365,237.534210 
	C166.419937,233.315826 179.977509,237.992905 185.785522,248.057877 
	C191.944031,258.730286 189.607880,272.060028 180.147781,280.225952 
	C171.286560,287.874939 159.273819,287.906067 147.972641,280.064545 
	C136.641785,287.925018 125.162689,295.840179 113.734543,303.828186 
	C98.587105,314.415924 83.550697,325.164642 68.302963,335.605194 
	C64.635857,338.116150 62.950962,340.766418 62.993473,345.372223 
	C63.219551,369.867737 63.171696,394.366730 63.040730,418.863586 
	C63.021103,422.534973 64.176773,423.902283 67.858421,423.880707 
	C112.177704,423.620880 156.497528,423.453583 200.817062,423.232819 
	C201.787079,423.227997 202.755356,422.877594 204.388779,422.226532 
	C205.362381,420.878723 205.939575,419.993439 205.941696,419.106750 
	C205.991882,398.242157 206.009109,377.377258 205.903778,356.513092 
	C205.897781,355.322693 204.796661,354.137817 204.205231,352.950378 
M198.038620,327.722839 
	C197.948303,333.950256 200.833466,338.192261 206.696182,340.218445 
	C211.540924,341.892792 215.853851,340.695404 219.418701,337.066772 
	C223.087997,333.331787 223.974243,328.029755 221.880920,323.237244 
	C219.898773,318.699219 215.015320,315.754181 209.872528,315.995453 
	C204.004883,316.270752 200.245575,319.753448 198.038620,327.722839 
M157.292755,250.555588 
	C156.332443,251.464294 155.232376,252.265564 154.436539,253.300705 
	C151.370117,257.289337 151.078674,263.002838 153.632416,267.323212 
	C156.250107,271.751770 160.220123,273.756042 165.264648,273.290985 
	C170.742294,272.786011 174.376968,269.799408 176.135437,264.512909 
	C177.802734,259.500488 176.342010,255.426941 172.663666,251.918594 
	C168.190262,247.651962 163.201157,247.875565 157.292755,250.555588 
z"/>
<path fill="#7DB3CF" opacity="1.000000" stroke="none" 
	d="
M204.145020,353.419312 
	C204.796661,354.137817 205.897781,355.322693 205.903778,356.513092 
	C206.009109,377.377258 205.991882,398.242157 205.941696,419.106750 
	C205.939575,419.993439 205.362381,420.878723 204.693222,421.894196 
	C204.237732,406.277802 204.125778,390.531921 204.054047,374.785919 
	C204.022308,367.820251 204.072052,360.854156 204.145020,353.419312 
z"/>
<path fill="#E6F9FD" opacity="1.000000" stroke="none" 
	d="
M340.766052,233.105576 
	C335.431152,242.105453 333.666382,251.422577 338.937317,261.263855 
	C339.712219,262.710632 340.715210,264.035217 341.710632,265.742615 
	C340.871124,265.818420 339.362488,265.844849 339.085724,265.274017 
	C336.654419,260.259460 333.889557,255.291275 332.421173,249.978333 
	C331.777649,247.649933 333.599426,244.397095 334.868347,241.845840 
	C336.395752,238.774979 338.526062,236.003998 340.766052,233.105576 
z"/>
<path fill="#E6F9FD" opacity="1.000000" stroke="none" 
	d="
M343.958740,268.543091 
	C351.265228,273.526367 359.258728,275.594696 368.599823,273.097229 
	C367.824188,276.175598 362.378815,279.009125 359.170502,277.793945 
	C354.314148,275.954559 349.578522,273.779510 344.882538,271.555115 
	C344.296448,271.277466 344.263550,269.832062 343.958740,268.543091 
z"/>
<path fill="#76B0D2" opacity="1.000000" stroke="none" 
	d="
M88.533478,160.858734 
	C85.282448,163.970184 81.680855,167.132278 77.687759,170.671051 
	C75.865120,171.705215 74.433983,172.362686 72.711342,173.152176 
	C71.943253,174.181747 71.466675,175.079300 70.654228,176.127502 
	C68.885185,176.542618 67.452011,176.807083 66.018837,177.071533 
	C66.018837,177.071548 65.892593,176.870010 65.835892,176.764069 
	C73.247108,171.408539 80.715012,166.158981 88.533478,160.858734 
z"/>
<path fill="#E2F8FD" opacity="1.000000" stroke="none" 
	d="
M343.011597,163.623627 
	C341.738281,163.059525 340.470642,162.126648 338.532532,160.700317 
	C343.459198,157.479630 347.792297,154.646957 352.465088,151.715485 
	C350.637634,154.023163 348.426117,156.391678 346.320587,158.850891 
	C345.129608,160.241898 344.112640,161.781906 343.011597,163.623627 
z"/>
<path fill="#76B0D2" opacity="1.000000" stroke="none" 
	d="
M109.664780,146.080688 
	C105.918945,149.018036 101.827690,152.005112 97.350174,154.981949 
	C101.082397,152.024628 105.200882,149.077530 109.664780,146.080688 
z"/>
<path fill="#E6F9FD" opacity="1.000000" stroke="none" 
	d="
M374.253357,270.913208 
	C376.365387,268.311218 378.854889,265.751892 381.624756,263.009827 
	C382.207855,267.977417 378.382507,269.433655 374.253357,270.913208 
z"/>
<path fill="#76B0D2" opacity="1.000000" stroke="none" 
	d="
M96.639908,155.037323 
	C94.517738,156.952042 92.061966,158.942795 89.228119,160.884460 
	C91.335464,158.928009 93.820885,157.020676 96.639908,155.037323 
z"/>
<path fill="#E6F9FD" opacity="1.000000" stroke="none" 
	d="
M348.698822,227.033844 
	C347.314178,228.365036 345.520233,229.672318 343.403442,231.075928 
	C343.139313,227.685455 345.148193,226.639099 348.698822,227.033844 
z"/>
<path fill="#E2F8FD" opacity="1.000000" stroke="none" 
	d="
M358.322388,147.916138 
	C359.628265,145.509109 361.545654,144.971207 363.904877,147.645630 
	C362.307281,147.958267 360.536133,147.958176 358.322388,147.916138 
z"/>
<path fill="#E2F8FD" opacity="1.000000" stroke="none" 
	d="
M354.137695,150.891174 
	C354.892731,149.888077 356.063843,148.931793 357.552460,147.913239 
	C358.331116,150.562836 356.862854,151.202026 354.137695,150.891174 
z"/>
<path fill="#E6F9FD" opacity="1.000000" stroke="none" 
	d="
M370.248108,272.955261 
	C370.976562,272.258026 372.099243,271.589050 373.549377,270.879883 
	C372.798706,271.554321 371.720520,272.268921 370.248108,272.955261 
z"/>
<path fill="#76B0D2" opacity="1.000000" stroke="none" 
	d="
M112.695282,144.050476 
	C112.247543,144.667984 111.490730,145.335648 110.383087,146.007996 
	C110.816895,145.375320 111.601547,144.737961 112.695282,144.050476 
z"/>
<path fill="#E2F8FD" opacity="1.000000" stroke="none" 
	d="
M366.189423,150.052094 
	C366.405396,149.969177 366.714691,150.172089 367.175049,150.611816 
	C366.978302,150.678391 366.630524,150.508148 366.189423,150.052094 
z"/>
<path fill="#E6F9FD" opacity="1.000000" stroke="none" 
	d="
M382.363586,261.847534 
	C382.117493,261.624908 382.229065,261.325226 382.711517,260.957336 
	C382.925842,261.174042 382.805481,261.467804 382.363586,261.847534 
z"/>
<path fill="#E2F8FD" opacity="1.000000" stroke="none" 
	d="
M343.915344,164.691803 
	C343.673645,164.891998 343.393616,164.742950 343.098633,164.223816 
	C343.331146,164.063538 343.595612,164.226486 343.915344,164.691803 
z"/>
<path fill="#E6F9FD" opacity="1.000000" stroke="none" 
	d="
M341.914062,232.145172 
	C341.975433,232.352905 341.774353,232.639313 341.324310,233.022263 
	C341.267426,232.820496 341.459503,232.522171 341.914062,232.145172 
z"/>
<path fill="#E2F8FD" opacity="1.000000" stroke="none" 
	d="
M346.803955,166.973236 
	C346.581787,167.053375 346.276001,166.839172 345.819214,166.384857 
	C346.018921,166.322815 346.369629,166.500854 346.803955,166.973236 
z"/>
<path fill="#F7FDFE" opacity="1.000000" stroke="none" 
	d="
M351.728973,240.715775 
	C356.489136,236.416107 361.615906,235.702469 366.745941,238.602036 
	C371.267273,241.157562 373.456909,245.438477 372.920532,250.797379 
	C372.416534,255.833420 368.784180,259.976562 363.673462,261.464905 
	C359.069702,262.805603 353.282562,260.695953 350.429108,256.636810 
	C347.060730,251.845215 347.386353,246.874634 351.728973,240.715775 
z"/>
<path fill="#F5FCFD" opacity="1.000000" stroke="none" 
	d="
M65.960243,257.363342 
	C65.889252,265.272980 62.438816,270.140778 56.549004,271.082550 
	C49.570698,272.198364 44.246861,269.416779 42.007603,263.485016 
	C39.632504,257.193420 42.874020,249.586197 49.166969,247.503616 
	C56.197670,245.176880 64.456558,248.384888 65.960243,257.363342 
z"/>
<path fill="#F4FDFC" opacity="1.000000" stroke="none" 
	d="
M248.328644,201.215576 
	C255.341293,197.263992 261.457520,198.033401 265.662415,203.127106 
	C269.203033,207.416107 269.188385,214.570297 265.630310,218.824249 
	C261.066406,224.280731 253.040405,224.977676 247.859314,220.367386 
	C242.189758,215.322418 242.258438,207.735611 248.328644,201.215576 
z"/>
<path fill="#F4FCFD" opacity="1.000000" stroke="none" 
	d="
M295.373474,364.050323 
	C290.083466,370.032104 285.291229,371.291077 279.936523,368.360077 
	C275.571960,365.971008 273.145752,360.422363 274.376343,355.644135 
	C275.987091,349.389771 282.563354,345.572723 288.632568,347.369415 
	C295.525696,349.410004 298.281647,355.885895 295.373474,364.050323 
z"/>
<path fill="#59ACE0" opacity="1.000000" stroke="none" 
	d="
M74.042511,273.031128 
	C73.181381,272.754120 71.608139,272.620667 71.481987,272.121490 
	C70.378876,267.756317 69.534370,263.325806 68.509636,258.419098 
	C70.713936,258.600830 71.949219,258.702667 73.350418,258.818176 
	C73.401398,258.151978 73.634064,257.574341 73.439034,257.288574 
	C70.750740,253.349228 68.861656,248.658554 63.219357,247.631699 
	C62.273911,247.459610 61.166962,245.020294 61.177509,243.636566 
	C61.188076,242.250641 62.222569,240.488403 63.365311,239.654007 
	C63.954697,239.223633 66.146057,240.097885 66.945183,240.984833 
	C73.299110,248.037140 78.466034,255.461105 74.347008,265.777863 
	C73.596191,267.658386 74.094467,270.037598 74.036362,272.636047 
	C74.056587,273.085510 74.001373,273.005096 74.042511,273.031128 
z"/>
<path fill="#59ACE0" opacity="1.000000" stroke="none" 
	d="
M57.002083,208.999390 
	C56.788452,214.599869 56.404453,220.200684 56.415409,225.800720 
	C56.424084,230.235886 57.154617,234.674957 57.063961,239.102036 
	C57.033031,240.612488 55.779716,242.979584 54.556290,243.393738 
	C52.264980,244.169418 49.587883,243.805496 47.071259,243.915619 
	C47.304771,242.902710 47.197575,241.524048 47.827766,240.937027 
	C51.567070,237.454041 53.929676,233.738312 51.349838,228.480515 
	C51.023968,227.816360 50.951103,226.345886 51.299496,226.133881 
	C58.142796,221.969543 53.772625,215.313110 55.331337,209.466721 
	C56.110950,208.999893 56.556515,208.999649 57.002083,208.999390 
z"/>
<path fill="#58ADE1" opacity="1.000000" stroke="none" 
	d="
M43.841057,279.389282 
	C35.283741,271.831451 32.234810,257.403687 38.507629,253.225479 
	C39.486149,267.388214 41.768940,280.531311 61.617649,279.260773 
	C54.859951,283.648621 49.545292,280.890747 43.841057,279.389282 
z"/>
<path fill="#5AADDE" opacity="1.000000" stroke="none" 
	d="
M66.018280,177.441513 
	C67.452011,176.807083 68.885185,176.542618 70.861938,176.368530 
	C71.937965,175.312668 72.470413,174.166428 73.002853,173.020172 
	C74.433983,172.362686 75.865120,171.705215 77.632195,171.008835 
	C80.674179,170.982620 81.656090,171.996384 80.363098,174.692154 
	C79.717789,176.037567 79.455475,177.566666 78.891846,179.437912 
	C77.987587,179.369888 76.433441,179.252960 74.933952,179.140152 
	C72.207664,185.971527 66.098854,188.492294 57.800014,184.989548 
	C59.067131,184.441544 60.415276,183.288162 61.588028,183.445145 
	C68.476379,184.367126 68.462585,184.470200 66.018280,177.441513 
z"/>
<path fill="#5AADDE" opacity="1.000000" stroke="none" 
	d="
M56.962624,208.637909 
	C56.556515,208.999649 56.110950,208.999893 55.331161,209.000397 
	C49.294971,205.900986 49.065971,204.899765 51.313026,198.880966 
	C51.943806,197.191406 51.516361,195.071625 51.418213,193.157196 
	C51.350880,191.843842 51.013771,190.544327 50.797253,189.238617 
	C52.491058,189.108414 54.284187,188.573700 55.851521,188.958557 
	C57.512360,189.366364 58.958580,190.648193 60.771175,191.707672 
	C58.723282,194.486404 56.675587,197.152481 54.750771,199.904495 
	C52.243782,203.488876 55.713013,205.608200 56.962624,208.637909 
z"/>
<path fill="#59ACE0" opacity="1.000000" stroke="none" 
	d="
M45.100258,247.302429 
	C43.388020,247.926285 41.921890,248.433853 40.421474,248.573807 
	C38.564339,248.747025 36.678753,248.615250 34.090099,248.615250 
	C35.490822,246.688889 36.836445,243.035873 38.779015,242.684662 
	C40.640751,242.348068 43.122108,245.438660 45.100258,247.302429 
z"/>
<path fill="#56AEE2" opacity="1.000000" stroke="none" 
	d="
M66.988968,270.297791 
	C67.210892,271.885101 67.416817,273.123627 67.814522,275.515625 
	C65.491020,274.295319 63.942669,273.482147 62.331894,272.636169 
	C65.211845,268.828186 65.211845,268.828186 66.988968,270.297791 
z"/>
<path fill="#59ACE0" opacity="1.000000" stroke="none" 
	d="
M42.191101,240.799622 
	C41.945374,240.237335 41.999268,239.736130 42.053162,239.234940 
	C42.503273,239.348801 42.953384,239.462662 43.403492,239.576523 
	C43.099236,240.004578 42.794979,240.432632 42.191101,240.799622 
z"/>
<path fill="#F5FCFC" opacity="1.000000" stroke="none" 
	d="
M198.062775,327.318359 
	C200.245575,319.753448 204.004883,316.270752 209.872528,315.995453 
	C215.015320,315.754181 219.898773,318.699219 221.880920,323.237244 
	C223.974243,328.029755 223.087997,333.331787 219.418701,337.066772 
	C215.853851,340.695404 211.540924,341.892792 206.696182,340.218445 
	C200.833466,338.192261 197.948303,333.950256 198.062775,327.318359 
z"/>
<path fill="#F6FDFD" opacity="1.000000" stroke="none" 
	d="
M157.627060,250.375870 
	C163.201157,247.875565 168.190262,247.651962 172.663666,251.918594 
	C176.342010,255.426941 177.802734,259.500488 176.135437,264.512909 
	C174.376968,269.799408 170.742294,272.786011 165.264648,273.290985 
	C160.220123,273.756042 156.250107,271.751770 153.632416,267.323212 
	C151.078674,263.002838 151.370117,257.289337 154.436539,253.300705 
	C155.232376,252.265564 156.332443,251.464294 157.627060,250.375870 
z"/>
<path fill="#61ADD9" opacity="1.000000" stroke="none" 
	d="
M72.711342,173.152176 
	C72.470413,174.166428 71.937965,175.312668 71.197807,176.217896 
	C71.466675,175.079300 71.943253,174.181747 72.711342,173.152176 
z"/>
</svg>